<svg id="f3fb761c-2a5d-4acf-93ad-b3c702e69441" data-name="Layer 1" xmlns="http://www.w3.org/2000/svg" viewBox="0 0 764.83575 701"><defs><style>.\38 122f49d-c223-4189-b03e-4fc67c15e2f9{fill:#001d3d;}.\34 8db2e43-4b75-48fc-a897-50c0aac135fa{fill:#ffd60a;}.\31 95b8b71-f01c-40ed-a16b-a94d4400c019{fill:#003566;}.c9899d1d-a516-440d-870b-9477e507c569{fill:#ffc300;}</style></defs><title>svg sharjeel</title><polygon class="8122f49d-c223-4189-b03e-4fc67c15e2f9" points="0.502 555.145 0.502 699 659.502 698.667 0.502 555.145"/><polygon class="48db2e43-4b75-48fc-a897-50c0aac135fa" points="2.836 0 142.836 423 300.836 493 474.836 571 676.836 661 764.836 700 737.836 701 667.836 669 465.836 579 261.836 488 132.836 431 2.836 36 2.836 0"/><polygon class="195b8b71-f01c-40ed-a16b-a94d4400c019" points="0.836 48 125.836 435 88.444 417.912 0.836 98 0.836 48"/><polygon class="8122f49d-c223-4189-b03e-4fc67c15e2f9" points="0.836 98 0 333.667 0.502 333.667 0.502 380.285 88.836 418 0.836 98"/><polygon class="48db2e43-4b75-48fc-a897-50c0aac135fa" points="0.502 379.3 0.502 391.299 686.089 699 711.836 699 0.502 379.3"/><polygon class="c9899d1d-a516-440d-870b-9477e507c569" points="0.502 391.299 0.502 401.301 660.098 699 685.836 699 0.502 391.299"/><polygon class="195b8b71-f01c-40ed-a16b-a94d4400c019" points="0.502 401.968 0.502 451.333 0.158 451.333 0.477 500.667 0.502 500.667 0.502 504.559 0.836 556 660.836 700 0.502 401.968"/><polygon class="c9899d1d-a516-440d-870b-9477e507c569" points="0.502 391.299 0.502 402.301 660.836 700 685.836 699 0.502 391.299"/></svg>